<svg width="24" height="24" viewBox="0 0 24 24" fill="none" xmlns="http://www.w3.org/2000/svg">
<path d="M21.504 18.381H19.222C18.359 18.381 18.099 17.682 16.552 16.134C15.2 14.831 14.629 14.669 14.287 14.669C13.814 14.669 13.685 14.799 13.685 15.45V17.502C13.685 18.057 13.505 18.382 12.055 18.382C10.6483 18.2875 9.28416 17.8602 8.07497 17.1352C6.86578 16.4102 5.84612 15.4083 5.1 14.212C3.32839 12.0071 2.09571 9.41911 1.5 6.65403C1.5 6.31203 1.63 6.00203 2.282 6.00203H4.562C5.148 6.00203 5.359 6.26303 5.589 6.86603C6.696 10.124 8.585 12.958 9.352 12.958C9.646 12.958 9.774 12.828 9.774 12.095V8.73903C9.677 7.20803 8.864 7.07903 8.864 6.52503C8.87428 6.37887 8.94114 6.24248 9.05037 6.14482C9.15961 6.04717 9.30261 5.99594 9.449 6.00203H13.033C13.523 6.00203 13.685 6.24603 13.685 6.83203V11.362C13.685 11.851 13.895 12.013 14.043 12.013C14.337 12.013 14.563 11.851 15.102 11.313C16.2574 9.90401 17.2013 8.3342 17.904 6.65303C17.9759 6.45118 18.1119 6.2784 18.2912 6.16105C18.4705 6.04369 18.6832 5.98819 18.897 6.00303H21.178C21.862 6.00303 22.007 6.34503 21.862 6.83303C21.0324 8.69144 20.0058 10.4555 18.8 12.095C18.554 12.47 18.456 12.665 18.8 13.105C19.026 13.447 19.826 14.115 20.363 14.75C21.145 15.53 21.794 16.432 22.285 17.42C22.481 18.056 22.155 18.381 21.504 18.381Z" fill="white"/>
</svg>
