<svg width="30" height="30" viewBox="0 0 30 30" fill="none" xmlns="http://www.w3.org/2000/svg">
<path fill-rule="evenodd" clip-rule="evenodd" d="M1.87503 15C1.87503 15.2486 1.9738 15.4871 2.14962 15.6629C2.32543 15.8387 2.56389 15.9375 2.81253 15.9375L24.9244 15.9375L19.0238 21.8362C18.8477 22.0122 18.7488 22.251 18.7488 22.5C18.7488 22.7489 18.8477 22.9877 19.0238 23.1637C19.1998 23.3397 19.4386 23.4386 19.6875 23.4386C19.9365 23.4386 20.1752 23.3397 20.3513 23.1637L27.8513 15.6637C27.9386 15.5766 28.0079 15.4732 28.0551 15.3593C28.1024 15.2454 28.1267 15.1233 28.1267 15C28.1267 14.8766 28.1024 14.7545 28.0551 14.6407C28.0079 14.5268 27.9386 14.4233 27.8513 14.3362L20.3513 6.83621C20.2641 6.74905 20.1606 6.67991 20.0468 6.63273C19.9329 6.58556 19.8108 6.56128 19.6875 6.56128C19.4386 6.56128 19.1998 6.66018 19.0238 6.83621C18.8477 7.01225 18.7488 7.25101 18.7488 7.49996C18.7488 7.74892 18.8477 7.98768 19.0238 8.16371L24.9244 14.0625L2.81253 14.0625C2.56389 14.0625 2.32543 14.1612 2.14962 14.3371C1.9738 14.5129 1.87503 14.7513 1.87503 15Z" fill="#78946B"/>
</svg>
