<svg width="20" height="20" viewBox="0 0 20 20" fill="none" xmlns="http://www.w3.org/2000/svg">
<path fill-rule="evenodd" clip-rule="evenodd" d="M1.2501 10.0001C1.2501 10.1658 1.31595 10.3248 1.43316 10.442C1.55037 10.5592 1.70934 10.6251 1.8751 10.6251L16.6164 10.6251L12.6826 14.5576C12.5652 14.6749 12.4993 14.8341 12.4993 15.0001C12.4993 15.166 12.5652 15.3252 12.6826 15.4426C12.8 15.5599 12.9591 15.6258 13.1251 15.6258C13.2911 15.6258 13.4502 15.5599 13.5676 15.4426L18.5676 10.4426C18.6258 10.3845 18.672 10.3155 18.7035 10.2396C18.735 10.1637 18.7512 10.0823 18.7512 10.0001C18.7512 9.91785 18.735 9.83645 18.7035 9.76052C18.672 9.68458 18.6258 9.61561 18.5676 9.55756L13.5676 4.55756C13.5095 4.49945 13.4405 4.45335 13.3646 4.4219C13.2887 4.39045 13.2073 4.37427 13.1251 4.37427C12.9591 4.37427 12.8 4.4402 12.6826 4.55756C12.5652 4.67491 12.4993 4.83409 12.4993 5.00006C12.4993 5.16603 12.5652 5.3252 12.6826 5.44256L16.6164 9.37506L1.8751 9.37506C1.70934 9.37506 1.55037 9.4409 1.43316 9.55812C1.31595 9.67533 1.2501 9.8343 1.2501 10.0001Z" fill="#393939"/>
</svg>
