<svg width="117" height="20" viewBox="0 0 117 20" fill="none" xmlns="http://www.w3.org/2000/svg">
<path d="M10.5001 14.3917L15.6501 17.5001L14.2834 11.6417L18.8334 7.70008L12.8417 7.19175L10.5001 1.66675L8.15841 7.19175L2.16675 7.70008L6.71675 11.6417L5.35008 17.5001L10.5001 14.3917Z" fill="#BADF93"/>
<path d="M34.5001 14.3917L39.6501 17.5001L38.2834 11.6417L42.8334 7.70008L36.8417 7.19175L34.5001 1.66675L32.1584 7.19175L26.1667 7.70008L30.7167 11.6417L29.3501 17.5001L34.5001 14.3917Z" fill="#BADF93"/>
<path d="M58.5001 14.3917L63.6501 17.5001L62.2834 11.6417L66.8334 7.70008L60.8417 7.19175L58.5001 1.66675L56.1584 7.19175L50.1667 7.70008L54.7167 11.6417L53.3501 17.5001L58.5001 14.3917Z" fill="#BADF93"/>
<path d="M82.5001 14.3917L87.6501 17.5001L86.2834 11.6417L90.8334 7.70008L84.8417 7.19175L82.5001 1.66675L80.1584 7.19175L74.1667 7.70008L78.7167 11.6417L77.3501 17.5001L82.5001 14.3917Z" fill="#BADF93"/>
<path d="M106.5 14.3917L111.65 17.5001L110.283 11.6417L114.833 7.70008L108.842 7.19175L106.5 1.66675L104.158 7.19175L98.1667 7.70008L102.717 11.6417L101.35 17.5001L106.5 14.3917Z" fill="#DDDDDD"/>
</svg>
