<svg width="117" height="20" fill="none" xmlns="http://www.w3.org/2000/svg"><path d="m10.5 14.392 5.15 3.108-1.367-5.858 4.55-3.942-5.991-.508L10.5 1.667 8.158 7.192 2.167 7.7l4.55 3.942L5.35 17.5l5.15-3.108ZM34.5 14.392l5.15 3.108-1.367-5.858 4.55-3.942-5.991-.508L34.5 1.667l-2.342 5.525-5.991.508 4.55 3.942L29.35 17.5l5.15-3.108ZM58.5 14.392l5.15 3.108-1.367-5.858 4.55-3.942-5.991-.508L58.5 1.667l-2.342 5.525-5.991.508 4.55 3.942L53.35 17.5l5.15-3.108ZM82.5 14.392l5.15 3.108-1.367-5.858 4.55-3.942-5.991-.508L82.5 1.667l-2.342 5.525-5.991.508 4.55 3.942L77.35 17.5l5.15-3.108Z" fill="#BADF93"/><path d="m106.5 14.392 5.15 3.108-1.367-5.858 4.55-3.942-5.991-.508-2.342-5.525-2.342 5.525-5.991.508 4.55 3.942-1.367 5.858 5.15-3.108Z" fill="#DDD"/></svg>