<svg width="70" height="70" viewBox="0 0 70 70" fill="none" xmlns="http://www.w3.org/2000/svg">
<circle cx="35" cy="35" r="35" fill="#BADF93"/>
<g clip-path="url(#clip0_22_136)">
<path d="M31.379 39.5C32.0833 39.5002 32.7651 39.7482 33.305 40.2005L33.5 40.379L35 41.879L36.5 40.379C36.998 39.881 37.6554 39.5741 38.357 39.512L38.621 39.5H44.657C45.6146 39.4999 46.5473 39.8054 47.3194 40.3719C48.0915 40.9384 48.6627 41.7365 48.95 42.65L49.0235 42.908L49.7225 45.704C49.8014 46.0196 49.8109 46.3485 49.7504 46.6681C49.6899 46.9877 49.5608 47.2904 49.372 47.5554C49.1832 47.8203 48.9393 48.0411 48.6569 48.2026C48.3745 48.3642 48.0605 48.4625 47.7365 48.491L47.54 48.5H22.46C22.1348 48.4999 21.8134 48.4293 21.5181 48.293C21.2228 48.1568 20.9605 47.9581 20.7494 47.7108C20.5382 47.4634 20.3832 47.1732 20.295 46.8602C20.2068 46.5471 20.1875 46.2187 20.2385 45.8975L20.2775 45.704L20.9765 42.908C21.2088 41.9789 21.7315 41.1481 22.4685 40.5365C23.2055 39.9249 24.1184 39.5645 25.0745 39.5075L25.343 39.5H31.379ZM35 20C36.176 20 37.4915 20.285 38.57 20.5865C40.964 21.254 42.383 23.4305 42.4925 25.709L42.5 25.994V32.0045C42.5 34.3865 41.0645 36.719 38.57 37.4135C37.4915 37.7135 36.176 38 35 38C33.824 38 32.5085 37.715 31.43 37.4135C29.036 36.746 27.617 34.5695 27.5075 32.291L27.5 32.006V25.994C27.5 23.6135 28.9355 21.2795 31.43 20.585C32.5085 20.2865 33.824 20 35 20Z" fill="white"/>
</g>
<defs>
<clipPath id="clip0_22_136">
<rect width="36" height="36" fill="white" transform="translate(17 17)"/>
</clipPath>
</defs>
</svg>
