<svg width="36" height="36" viewBox="0 0 36 36" fill="none" xmlns="http://www.w3.org/2000/svg">
<g clip-path="url(#clip0_22_138)">
<path d="M14.379 22.5C15.0833 22.5002 15.7651 22.7482 16.305 23.2005L16.5 23.379L18 24.879L19.5 23.379C19.998 22.881 20.6554 22.5741 21.357 22.512L21.621 22.5H27.657C28.6146 22.4999 29.5473 22.8054 30.3194 23.3719C31.0915 23.9384 31.6627 24.7365 31.95 25.65L32.0235 25.908L32.7225 28.704C32.8014 29.0196 32.8109 29.3485 32.7504 29.6681C32.6899 29.9877 32.5608 30.2904 32.372 30.5554C32.1832 30.8203 31.9393 31.0411 31.6569 31.2026C31.3745 31.3642 31.0605 31.4625 30.7365 31.491L30.54 31.5H5.45998C5.13475 31.4999 4.81341 31.4293 4.5181 31.293C4.22279 31.1568 3.96052 30.9581 3.74938 30.7108C3.53823 30.4634 3.38321 30.1732 3.29501 29.8602C3.20681 29.5471 3.18753 29.2187 3.23848 28.8975L3.27748 28.704L3.97648 25.908C4.20879 24.9789 4.73147 24.1481 5.4685 23.5365C6.20552 22.9249 7.11845 22.5645 8.07448 22.5075L8.34298 22.5H14.379ZM18 3C19.176 3 20.4915 3.285 21.57 3.5865C23.964 4.254 25.383 6.4305 25.4925 8.709L25.5 8.994V15.0045C25.5 17.3865 24.0645 19.719 21.57 20.4135C20.4915 20.7135 19.176 21 18 21C16.824 21 15.5085 20.715 14.43 20.4135C12.036 19.746 10.617 17.5695 10.5075 15.291L10.5 15.006V8.994C10.5 6.6135 11.9355 4.2795 14.43 3.585C15.5085 3.2865 16.824 3 18 3Z" fill="white"/>
</g>
<defs>
<clipPath id="clip0_22_138">
<rect width="36" height="36" fill="white"/>
</clipPath>
</defs>
</svg>
